HIERARCHY
ROOT Hips
{
	OFFSET 0.000000 89.005402 0.000000
	CHANNELS 6 Xposition Yposition Zposition Xrotation Yrotation Zrotation
	JOINT Spine
	{
		OFFSET 0.116900 10.681000 0.373400
		CHANNELS 3 Xrotation Yrotation Zrotation
		JOINT Spine1
		{
			OFFSET 0.000000 13.840401 0.053500
			CHANNELS 3 Xrotation Yrotation Zrotation
			JOINT Spine2
			{
				OFFSET 0.000000 14.712700 -0.366200
				CHANNELS 3 Xrotation Yrotation Zrotation
				JOINT Neck
				{
					OFFSET 0.000000 35.415497 -3.314200
					CHANNELS 3 Xrotation Yrotation Zrotation
					JOINT Head
					{
						OFFSET 0.000000 16.899200 1.218300
						CHANNELS 3 Xrotation Yrotation Zrotation
						JOINT HeadTop_End
						{
							OFFSET 0.000000 22.206207 2.192500
							CHANNELS 3 Xrotation Yrotation Zrotation
							End Site
							{
								OFFSET 0.000000 22.314178 0.000000
							}
						}
					}
				}
				JOINT LeftShoulder
				{
					OFFSET 12.896400 26.716293 -4.548400
					CHANNELS 3 Xrotation Yrotation Zrotation
					JOINT LeftArm
					{
						OFFSET 19.027000 -4.857010 -1.718400
						CHANNELS 3 Xrotation Yrotation Zrotation
						JOINT LeftForeArm
						{
							OFFSET 24.179897 0.000000 0.000000
							CHANNELS 3 Xrotation Yrotation Zrotation
							JOINT LeftHand
							{
								OFFSET 27.156403 0.000000 0.000000
								CHANNELS 3 Xrotation Yrotation Zrotation
								JOINT LeftHandIndex1
								{
									OFFSET 16.441200 0.000000 0.000000
									CHANNELS 3 Xrotation Yrotation Zrotation
									JOINT LeftHandIndex2
									{
										OFFSET 4.821899 0.000000 0.000000
										CHANNELS 3 Xrotation Yrotation Zrotation
										JOINT LeftHandIndex3
										{
											OFFSET 6.386497 0.000000 0.000000
											CHANNELS 3 Xrotation Yrotation Zrotation
											JOINT LeftHandIndex4
											{
												OFFSET 5.188988 0.000000 0.000000
												CHANNELS 3 Xrotation Yrotation Zrotation
												End Site
												{
													OFFSET -0.178703 5.185913 0.000177
												}
											}
										}
									}
								}
								JOINT LeftHandThumb1
								{
									OFFSET 6.534897 -5.032593 5.900300
									CHANNELS 3 Xrotation Yrotation Zrotation
									JOINT LeftHandThumb2
									{
										OFFSET 3.818176 -2.204422 2.204423
										CHANNELS 3 Xrotation Yrotation Zrotation
										JOINT LeftHandThumb3
										{
											OFFSET 3.252098 -1.877594 1.877601
											CHANNELS 3 Xrotation Yrotation Zrotation
											JOINT LeftHandThumb4
											{
												OFFSET 5.251778 -3.032120 3.032117
												CHANNELS 3 Xrotation Yrotation Zrotation
												End Site
												{
													OFFSET 0.000023 6.780014 0.000000
												}
											}
										}
									}
								}
							}
						}
					}
				}
				JOINT RightShoulder
				{
					OFFSET -12.896300 26.716293 -4.548400
					CHANNELS 3 Xrotation Yrotation Zrotation
					JOINT RightArm
					{
						OFFSET -19.027000 -4.857010 -1.718400
						CHANNELS 3 Xrotation Yrotation Zrotation
						JOINT RightForeArm
						{
							OFFSET -24.179897 0.000000 0.000000
							CHANNELS 3 Xrotation Yrotation Zrotation
							JOINT RightHand
							{
								OFFSET -27.156403 0.000000 0.000000
								CHANNELS 3 Xrotation Yrotation Zrotation
								JOINT RightHandThumb1
								{
									OFFSET -6.591202 -4.852203 5.988100
									CHANNELS 3 Xrotation Yrotation Zrotation
									JOINT RightHandThumb2
									{
										OFFSET -3.818176 -2.204422 2.204423
										CHANNELS 3 Xrotation Yrotation Zrotation
										JOINT RightHandThumb3
										{
											OFFSET -3.252098 -1.877594 1.877601
											CHANNELS 3 Xrotation Yrotation Zrotation
											JOINT RightHandThumb4
											{
												OFFSET -5.251778 -3.032120 3.032117
												CHANNELS 3 Xrotation Yrotation Zrotation
												End Site
												{
													OFFSET -0.000023 6.780014 0.000000
												}
											}
										}
									}
								}
								JOINT RightHandIndex1
								{
									OFFSET -16.029404 0.000000 0.000000
									CHANNELS 3 Xrotation Yrotation Zrotation
									JOINT RightHandIndex2
									{
										OFFSET -5.213303 0.000000 0.000000
										CHANNELS 3 Xrotation Yrotation Zrotation
										JOINT RightHandIndex3
										{
											OFFSET -6.386528 0.000000 0.000000
											CHANNELS 3 Xrotation Yrotation Zrotation
											JOINT RightHandIndex4
											{
												OFFSET -5.189026 0.000000 0.000000
												CHANNELS 3 Xrotation Yrotation Zrotation
												End Site
												{
													OFFSET 0.236702 5.183624 0.001972
												}
											}
										}
									}
								}
							}
						}
					}
				}
			}
		}
	}
	JOINT LeftUpLeg
	{
		OFFSET 14.073000 -7.904099 -1.463000
		CHANNELS 3 Xrotation Yrotation Zrotation
		JOINT LeftLeg
		{
			OFFSET -0.109806 -34.073280 4.093200
			CHANNELS 3 Xrotation Yrotation Zrotation
			JOINT LeftFoot
			{
				OFFSET 0.109806 -29.899420 -6.319000
				CHANNELS 3 Xrotation Yrotation Zrotation
				JOINT LeftToeBase
				{
					OFFSET 1.551100 -14.988700 20.535801
					CHANNELS 3 Xrotation Yrotation Zrotation
					JOINT LeftToe_End
					{
						OFFSET 0.221200 0.570800 13.248301
						CHANNELS 3 Xrotation Yrotation Zrotation
						End Site
						{
							OFFSET 0.000000 13.262435 0.000000
						}
					}
				}
			}
		}
	}
	JOINT RightUpLeg
	{
		OFFSET -13.839300 -7.904099 -1.463000
		CHANNELS 3 Xrotation Yrotation Zrotation
		JOINT RightLeg
		{
			OFFSET 0.109694 -34.073219 4.093300
			CHANNELS 3 Xrotation Yrotation Zrotation
			JOINT RightFoot
			{
				OFFSET -0.109694 -29.899384 -6.319200
				CHANNELS 3 Xrotation Yrotation Zrotation
				JOINT RightToeBase
				{
					OFFSET -1.551100 -14.988700 20.535801
					CHANNELS 3 Xrotation Yrotation Zrotation
					JOINT RightToe_End
					{
						OFFSET -0.221200 0.570900 13.248299
						CHANNELS 3 Xrotation Yrotation Zrotation
						End Site
						{
							OFFSET 0.000000 13.262440 0.000000
						}
					}
				}
			}
		}
	}
}
MOTION
Frames: 8
Frame Time: 0.033333
0.024647 88.464729 1.378872 -0.013311 2.202364 -0.773879 0.327178 0.576821 -0.620625 -0.727033 1.045191 -0.422321 -0.730528 1.406435 1.654132 8.510265 0.579405 3.817914 -6.630867 -2.503309 -5.486853 -0.000000 -0.000000 0.000000 -4.803464 -10.641267 -12.159717 16.240363 -28.514349 -68.254763 0.000011 -9.288771 0.000015 -11.492983 6.076621 -2.146635 0.711536 5.212592 -19.058765 0.227585 1.618578 -16.006031 0.038561 0.671814 -6.570542 -0.000001 0.000001 0.000002 -2.867514 3.737520 9.029466 12.470232 25.893631 0.623348 -18.004263 -15.440105 4.352378 -0.000002 -0.000000 -0.000003 -2.180383 -0.069707 11.813312 19.531054 39.077838 62.979597 0.000000 10.824361 -0.000007 -14.441988 0.535258 0.120003 -6.843509 -4.631469 -19.347093 11.507683 -15.498145 5.718391 -16.634675 13.067794 -16.096459 0.000000 -0.000000 0.000003 1.029474 -6.396356 15.662005 0.131268 -1.099067 13.621340 0.025317 -0.485465 5.970383 0.000005 -0.000002 -0.000000 -4.640829 10.994346 1.723047 7.107810 -3.210640 -0.180826 -2.709686 6.037736 0.237372 -0.000968 0.000005 0.000000 -0.000000 0.000000 -0.000000 -3.682667 0.660380 1.015733 3.999190 -5.193121 0.107497 -0.315916 2.733655 -0.270285 -0.009036 -0.000000 -0.000000 0.000000 -0.000000 -0.000000 
0.020335 88.444916 1.374069 -0.032671 2.202290 -0.760582 0.338199 0.618411 -0.645583 -0.727033 1.056715 -0.422321 -0.730527 1.417177 1.654132 8.518651 0.568460 3.832329 -6.833798 -2.585984 -5.443642 0.000000 -0.000000 -0.000000 -4.799600 -10.620494 -12.162299 16.196235 -28.493498 -68.268198 -0.000001 -9.288773 -0.000011 -11.507273 6.061822 -2.107006 0.710174 5.210116 -19.031465 0.226812 1.615893 -15.978854 0.038250 0.669054 -6.543350 -0.000000 -0.000000 0.000003 -2.871777 3.712199 9.024614 12.465878 25.867274 0.621812 -18.012828 -15.465155 4.343286 -0.000002 0.000000 0.000001 -2.180357 -0.070506 11.834324 19.533298 39.079504 62.951866 0.000005 10.816539 -0.000019 -14.482496 0.522361 0.103907 -6.845054 -4.577442 -19.332618 11.493252 -15.444639 5.720938 -16.641001 13.122399 -16.082500 0.000001 0.000000 0.000001 1.025427 -6.392768 15.605685 0.130194 -1.094636 13.565278 0.024840 -0.480933 5.914371 -0.000003 -0.000001 -0.000000 -4.688773 10.994595 1.721644 7.249973 -3.211002 -0.152523 -2.782199 6.037973 0.221816 -0.000968 0.000004 0.000000 -0.000000 -0.000001 0.000000 -3.784512 0.664691 1.002897 4.262486 -5.194381 0.107953 -0.476787 2.733568 -0.264798 0.030549 0.000000 0.000000 -0.000000 0.000000 0.000000 
0.013884 88.427551 1.363417 -0.062858 2.202250 -0.749515 0.372128 0.669328 -0.674135 -0.714201 1.070945 -0.422322 -0.717551 1.431370 1.654133 8.552464 0.537202 3.873460 -7.721204 -2.798624 -5.292472 -0.000000 0.000000 -0.000000 -4.800438 -10.603227 -12.184558 16.155424 -28.477702 -68.238562 0.000002 -9.302046 0.000011 -11.547797 6.029522 -2.042630 0.706671 5.203726 -18.961099 0.224841 1.608989 -15.908738 0.037430 0.661918 -6.473281 0.000001 0.000002 -0.000000 -2.886848 3.646498 9.007875 12.454400 25.798167 0.617902 -18.034974 -15.529852 4.319786 0.000001 -0.000000 -0.000000 -2.180349 -0.070796 11.841928 19.588429 39.086724 62.876440 0.000001 10.852313 0.000013 -14.563956 0.552828 0.052521 -6.848606 -4.430232 -19.285253 11.453068 -15.295785 5.728046 -16.658428 13.272317 -16.044138 -0.000000 -0.000001 -0.000004 1.014305 -6.382828 15.450632 0.127257 -1.082395 13.410754 0.023565 -0.468434 5.760113 -0.000000 -0.000000 0.000001 -4.728402 10.994999 1.731411 7.383707 -3.214915 -0.146077 -2.846127 6.038042 0.217510 -0.000968 0.000006 0.000000 -0.000000 0.000002 -0.000000 -3.863626 0.661976 0.993554 4.492582 -5.191720 0.122200 -0.619212 2.733787 -0.270204 0.077108 -0.000000 -0.000000 0.000000 -0.000000 0.000000 
0.005672 88.412262 1.345739 -0.101537 2.206661 -0.741217 0.461113 0.728883 -0.705455 -0.684993 1.087225 -0.422322 -0.688282 1.447732 1.654132 8.603530 0.494749 3.943554 -9.575561 -3.091413 -5.032499 -0.000000 -0.000000 -0.000000 -4.806870 -10.602515 -12.217228 16.121601 -28.449427 -68.201256 -0.000005 -9.343066 -0.000024 -11.634752 5.980421 -1.956396 0.701141 5.193576 -18.849473 0.221724 1.598030 -15.797514 0.036159 0.650602 -6.362117 -0.000002 -0.000005 0.000002 -2.910817 3.542506 8.976547 12.436224 25.688557 0.611595 -18.070206 -15.632589 4.282389 0.000000 -0.000001 -0.000001 -2.180323 -0.071551 11.861746 19.703626 39.114902 62.763626 -0.000005 10.906816 -0.000008 -14.661472 0.598384 -0.005062 -6.854433 -4.208907 -19.214516 11.392713 -15.072096 5.738948 -16.684836 13.497625 -15.986333 -0.000002 -0.000000 -0.000001 0.997643 -6.367831 15.217595 0.122902 -1.063972 13.178246 0.021710 -0.449635 5.528295 0.000003 -0.000001 -0.000001 -4.764909 10.995602 1.748064 7.511538 -3.228529 -0.144543 -2.899935 6.037840 0.215566 -0.000968 0.000005 0.000000 -0.000000 0.000000 -0.000000 -3.921098 0.647463 0.988565 4.684446 -5.175849 0.149048 -0.728212 2.734452 -0.286154 0.107414 0.000001 0.000000 0.000000 -0.000000 -0.000000 
-0.004148 88.397415 1.320431 -0.144051 2.217099 -0.734179 0.639879 0.796768 -0.737242 -0.643338 1.105350 -0.432556 -0.646517 1.464783 1.643395 8.645891 0.445245 4.040810 -11.885709 -3.395019 -4.698955 0.000000 -0.000000 -0.000000 -4.807482 -10.601861 -12.220949 16.107951 -28.418877 -68.210879 0.000003 -9.398509 0.000007 -11.733075 5.942448 -1.888288 0.694097 5.180603 -18.707045 0.217786 1.584043 -15.655531 0.034567 0.636154 -6.220250 -0.000001 -0.000002 -0.000000 -2.941524 3.409667 8.936471 12.413059 25.548630 0.603471 -18.115323 -15.763680 4.234540 -0.000000 0.000000 0.000000 -2.180258 -0.073487 11.912646 19.859345 39.173594 62.639399 -0.000001 10.943395 -0.000003 -14.738315 0.623809 -0.034803 -6.861948 -3.933342 -19.126220 11.317568 -14.793539 5.752848 -16.718078 13.778155 -15.914146 0.000002 0.000000 -0.000000 0.976986 -6.349090 14.927404 0.117586 -1.040994 12.888721 0.019504 -0.426229 5.239616 0.000002 0.000001 0.000001 -4.805100 10.996280 1.768367 7.640636 -3.237809 -0.140186 -2.947648 6.037755 0.211431 -0.000968 0.000005 0.000000 -0.000000 -0.000000 -0.000000 -3.974237 0.632611 0.985166 4.861370 -5.158347 0.174954 -0.818056 2.735166 -0.304578 0.127270 0.000000 0.000000 -0.000000 0.000000 0.000000 
-0.015068 88.382423 1.287411 -0.185551 2.229174 -0.733431 0.881049 0.847854 -0.765063 -0.603255 1.115042 -0.444541 -0.606303 1.478597 1.631361 8.683915 0.389760 4.152462 -13.455995 -3.675744 -4.302114 -0.000000 0.000000 0.000000 -4.803942 -10.573378 -12.183708 16.134005 -28.437148 -68.246301 -0.000003 -9.422352 -0.000008 -11.744392 5.975542 -1.889908 0.685979 5.165549 -18.541841 0.213250 1.567799 -15.490872 0.032758 0.619385 -6.055721 -0.000002 0.000001 0.000001 -2.975583 3.255030 8.890677 12.386172 25.386392 0.594035 -18.167789 -15.915589 4.178917 0.000000 -0.000000 0.000000 -2.180216 -0.074783 11.946704 19.995946 39.266795 62.542041 0.000008 10.923387 0.000018 -14.754190 0.600928 -0.014448 -6.870904 -3.623239 -19.026867 11.233014 -14.480066 5.768811 -16.755964 14.093809 -15.832624 -0.000003 0.000000 -0.000000 0.953864 -6.327843 14.600851 0.111730 -1.015123 12.562864 0.017168 -0.399855 4.914748 -0.000001 0.000001 0.000001 -4.856406 10.980510 1.781583 7.777062 -3.229278 -0.119599 -2.990933 6.038055 0.196796 -0.000968 0.000005 0.000000 -0.000000 -0.000002 0.000000 -4.033551 0.613693 0.985196 5.032739 -5.145664 0.195605 -0.898559 2.735340 -0.320145 0.149463 0.000000 0.000000 -0.000000 0.000000 0.000000 
-0.026286 88.367363 1.246246 -0.222283 2.242273 -0.733520 1.085973 0.848864 -0.785667 -0.576925 1.112438 -0.454576 -0.579817 1.480193 1.620745 8.794821 0.330369 4.264397 -13.400802 -3.904666 -3.857648 -0.000000 0.000000 -0.000000 -4.798563 -10.527627 -12.122357 16.175671 -28.532118 -68.239484 0.000007 -9.372872 0.000005 -11.600341 6.085691 -1.948084 0.677133 5.149031 -18.360896 0.208352 1.549983 -15.310520 0.030842 0.601030 -5.875480 -0.000002 0.000000 -0.000000 -3.013037 3.085741 8.840450 12.356751 25.208683 0.583598 -18.225479 -16.081943 4.117766 -0.000000 -0.000000 0.000002 -2.183575 -0.057179 11.894978 20.056092 39.385453 62.485050 -0.000004 10.848547 -0.000003 -14.705472 0.538676 0.039559 -6.880862 -3.298345 -18.922711 11.144500 -14.151849 5.785997 -16.796224 14.424490 -15.746817 0.000001 -0.000000 -0.000000 0.929753 -6.305453 14.258734 0.105773 -0.987963 12.221503 0.014877 -0.372236 4.574331 -0.000001 -0.000002 0.000001 -4.920449 10.951962 1.789671 7.915049 -3.200575 -0.091273 -3.027074 6.038592 0.182653 -0.000968 0.000005 0.000000 -0.000000 0.000000 0.000000 -4.102020 0.601176 0.994604 5.196918 -5.149162 0.199674 -0.964234 2.735141 -0.328104 0.162243 -0.000000 0.000000 0.000000 -0.000000 -0.000000 
-0.037436 88.351440 1.195841 -0.249726 2.255546 -0.733104 1.189533 0.816041 -0.804582 -0.557890 1.109122 -0.461907 -0.560632 1.477231 1.613305 9.071521 0.263333 4.378190 -11.634922 -4.079263 -3.522357 0.000000 -0.000000 0.000000 -4.793037 -10.515291 -12.038430 16.157311 -28.663531 -68.183572 -0.000001 -9.274010 -0.000010 -11.363463 6.180233 -1.972167 0.667969 5.131759 -18.172133 0.203288 1.531388 -15.122310 0.028904 0.581863 -5.687454 -0.000001 0.000001 -0.000000 -3.050613 2.909665 8.785113 12.326041 25.023153 0.572590 -18.286045 -16.255780 4.053596 -0.000001 0.000000 0.000002 -2.190367 -0.021516 11.800768 20.031283 39.508399 62.438400 -0.000001 10.778804 -0.000009 -14.644557 0.484947 0.075691 -6.891248 -2.978423 -18.820141 11.057375 -13.828630 5.803415 -16.836439 14.750074 -15.661974 0.000000 -0.000001 -0.000001 0.906143 -6.283277 13.921812 0.100056 -0.961185 11.885304 0.012767 -0.345017 4.239116 -0.000001 0.000001 0.000001 -5.005990 10.945008 1.810144 8.056750 -3.196085 -0.089968 -3.057874 6.038657 0.183716 -0.000968 0.000005 0.000000 0.000000 0.000000 -0.000000 -4.194489 0.612395 1.011906 5.369018 -5.170093 0.182917 -1.023054 2.734367 -0.320940 0.171126 0.000001 0.000000 -0.000000 0.000000 -0.000000 
